<?xml version="1.0" encoding="UTF-8"?>
<svg id="_レイヤー_1" data-name="レイヤー 1" xmlns="http://www.w3.org/2000/svg" version="1.1" xmlns:xlink="http://www.w3.org/1999/xlink" viewBox="0 0 224.5631 224.5631">
  <defs>
    <linearGradient id="_名称未設定グラデーション_7" data-name="名称未設定グラデーション 7" x1="5.5099071" y1="5.5099074" x2="219.0531923" y2="219.0531926" gradientUnits="userSpaceOnUse">
      <stop offset=".004415" stop-color="#94e200"/>
      <stop offset=".5667937" stop-color="#81bd01"/>
      <stop offset="1" stop-color="#729e02"/>
    </linearGradient>
  </defs>
  <rect width="224.5631" height="224.5631" rx="18.812" ry="18.812" fill="url(#_名称未設定グラデーション_7)" stroke-width="0"/>
  <g>
    <path d="M175.0414247,49.5215551H49.5216743c22.863422,0,44.2971452,6.115828,62.7598752,16.796374,18.4627301-10.680546,39.8964532-16.796374,62.7598752-16.796374Z" fill="#fcaa0c" stroke-width="0"/>
    <path d="M175.0415406,175.0414252V49.5216748c0,22.863422-6.1158242,44.2971452-16.7963701,62.7598752,10.680546,18.4627301,16.7963701,39.8964532,16.7963701,62.7598752Z" fill="#90be03" stroke-width="0"/>
    <path d="M112.2815495,66.317929c-18.4627301-10.680546-39.8964532-16.796374-62.7598752-16.796374h-.0001197v125.5198701c0-46.4592902,25.2430715-87.0202568,62.7599949-108.7234962Z" fill="#fed90d" stroke-width="0"/>
    <path d="M49.5216743,175.0415449h125.5198663v-.0001197c0-22.863422-6.1158242-44.2971452-16.7963701-62.7598752-21.7032393,37.5169235-62.2642059,62.7599949-108.7234962,62.7599949Z" fill="#98e600" stroke-width="0"/>
    <path d="M131.5021032,79.9990652c-5.9469539-5.1342155-12.3781152-9.7228446-19.2205537-13.6811361-37.5169235,21.7032393-62.7599949,62.2642059-62.7599949,108.7234962v.0001197h.0001197c46.4592902,0,87.0202568-25.2430715,108.7234962-62.7599949-3.9582915-6.8424385-8.5469207-13.2735998-13.6811361-19.2205537-6.4295753-1.5736444-11.4882867-6.6323559-13.0619311-13.0619311Z" fill="#729700" stroke-width="0"/>
    <path d="M175.0414247,49.5215551c-22.863422,0-44.2971452,6.115828-62.7598752,16.796374,19.0541934,11.0226934,34.9409276,26.9094276,45.963621,45.963621,10.680546-18.4627301,16.7963701-39.8964532,16.7963701-62.7598752v-.0001197h-.0001159Z" fill="#6f8602" stroke-width="0"/>
    <g>
      <circle cx="112.2815495" cy="112.28155" r="24.6971612" fill="#58c300" stroke-width="0"/>
      <circle cx="112.2815495" cy="112.28155" r="16.3405085" fill="#efdb00" stroke-width="0"/>
    </g>
    <g>
      <circle cx="74.1595181" cy="150.4424645" r="17.8376041" fill="#58c300" stroke-width="0"/>
      <circle cx="74.1595181" cy="150.4424645" r="9.4717213" fill="#efdb00" stroke-width="0"/>
    </g>
    <g>
      <g>
        <path d="M166.6433574,75.747466c0-9.8459913-7.9817625-17.8277239-17.8277239-17.8277239-9.8459913,0-17.8277539,7.9817326-17.8277539,17.8277239,0,1.4657302.1806351,2.8886957.5142236,4.2515992,4.6666171,4.0288577,9.0330734,8.3953141,13.0619311,13.0619311,1.3629034.3335884,2.785869.5142236,4.2515992.5142236,9.8459614,0,17.8277239-7.9817625,17.8277239-17.8277539Z" fill="#58b900" stroke-width="0"/>
        <path d="M131.5021032,79.9990652c1.5736444,6.4295753,6.6323559,11.4882867,13.0619311,13.0619311-4.0288577-4.6666171-8.3953141-9.0330734-13.0619311-13.0619311Z" fill="#58c300" stroke-width="0"/>
      </g>
      <circle cx="148.8156185" cy="75.747481" r="9.4531262" fill="#cfcd00" stroke-width="0"/>
    </g>
  </g>
</svg>